<svg width="24" height="24" viewBox="0 0 24 24" fill="none" xmlns="http://www.w3.org/2000/svg">
<path d="M18.63 7.15014C18.67 7.76014 18.62 8.45014 18.5 9.22014L17.77 13.9101C17.15 17.8201 15.34 19.1401 11.43 18.5301L6.73999 17.7901C5.38999 17.5801 4.34999 17.2201 3.58999 16.6801C2.13999 15.6701 1.71999 14.0101 2.11999 11.4501L2.85999 6.76014C3.47999 2.85014 5.28999 1.53014 9.19999 2.14014L13.89 2.88014C17.03 3.37014 18.5 4.65014 18.63 7.15014Z" stroke="#292D32" stroke-width="1.5" stroke-linecap="round" stroke-linejoin="round"/>
<path d="M20.5001 13.4704L19.0001 17.9804C17.7501 21.7404 15.7501 22.7404 11.9901 21.4904L7.48009 19.9904C5.21009 19.2404 3.95009 18.2004 3.59009 16.6804C4.35009 17.2204 5.39009 17.5804 6.74009 17.7904L11.4301 18.5304C15.3401 19.1404 17.1501 17.8204 17.7701 13.9104L18.5001 9.22039C18.6201 8.45039 18.6701 7.76039 18.6301 7.15039C21.0201 8.42039 21.5401 10.3404 20.5001 13.4704Z" stroke="#292D32" stroke-width="1.5" stroke-linecap="round" stroke-linejoin="round"/>
<path d="M8.24 8.98C9.20098 8.98 9.98 8.20098 9.98 7.24C9.98 6.27902 9.20098 5.5 8.24 5.5C7.27902 5.5 6.5 6.27902 6.5 7.24C6.5 8.20098 7.27902 8.98 8.24 8.98Z" stroke="#292D32" stroke-width="1.5" stroke-linecap="round" stroke-linejoin="round"/>
</svg>
